<svg xmlns="http://www.w3.org/2000/svg" viewBox="0 0 520 580" role="img" aria-label="QuickQ app preview">
  <defs>
    <linearGradient id="phone" x1="85" x2="330" y1="20" y2="500" gradientUnits="userSpaceOnUse">
      <stop stop-color="#2767ff"/>
      <stop offset="1" stop-color="#21c7ff"/>
    </linearGradient>
    <linearGradient id="panel" x1="270" x2="505" y1="130" y2="410" gradientUnits="userSpaceOnUse">
      <stop stop-color="#2a72ff"/>
      <stop offset="1" stop-color="#1b32d7"/>
    </linearGradient>
    <filter id="glow" x="-30%" y="-30%" width="160%" height="160%">
      <feDropShadow dx="0" dy="22" stdDeviation="24" flood-color="#1234d8" flood-opacity=".48"/>
    </filter>
  </defs>
  <rect width="520" height="580" fill="none"/>
  <g filter="url(#glow)">
    <rect x="35" y="25" width="295" height="500" rx="18" fill="url(#phone)"/>
    <rect x="35" y="330" width="295" height="195" rx="14" fill="#fff"/>
    <circle cx="183" cy="206" r="66" fill="none" stroke="#fff" stroke-width="4"/>
    <path d="M183 174v39" stroke="#7df251" stroke-width="7" stroke-linecap="round"/>
    <path d="M165 191a35 35 0 1 0 36 0" fill="none" stroke="#fff" stroke-width="7" stroke-linecap="round"/>
    <text x="183" y="61" text-anchor="middle" font-family="Arial, sans-serif" font-size="16" font-weight="700" fill="#fff">QuickQ</text>
    <path d="M52 58h14M52 64h14M52 70h14" stroke="#fff" stroke-width="3" stroke-linecap="round"/>
    <path d="M302 57h13l-3 14h-10zM300 53h5l2 7" fill="none" stroke="#fff" stroke-width="2" stroke-linejoin="round"/>
    <circle cx="145" cy="280" r="6" fill="#83ff56"/>
    <text x="160" y="286" font-family="Arial, sans-serif" font-size="14" fill="#fff">Connected</text>
    <rect x="64" y="350" width="50" height="38" rx="10" fill="#eef7ff"/>
    <rect x="68" y="365" width="23" height="12" rx="3" fill="#3aa8e8"/>
    <text x="128" y="376" font-family="Arial, sans-serif" font-size="14" fill="#263a5a">BILIBILI</text>
    <rect x="64" y="420" width="50" height="38" rx="10" fill="#f4f7ff"/>
    <rect x="71" y="432" width="30" height="18" rx="3" fill="#f7f7f7"/>
    <path d="M71 438h30M71 444h30" stroke="#d33" stroke-width="3"/>
    <text x="128" y="444" font-family="Arial, sans-serif" font-size="14" fill="#263a5a">United States</text>
    <rect x="60" y="492" width="92" height="24" rx="12" fill="#f7fbff" stroke="#317bff"/>
    <text x="106" y="508" text-anchor="middle" font-family="Arial, sans-serif" font-size="12" fill="#317bff">Support</text>
  </g>
  <g filter="url(#glow)">
    <rect x="282" y="125" width="205" height="285" rx="16" fill="url(#panel)"/>
    <rect x="296" y="155" width="178" height="238" rx="4" fill="#fff" opacity=".96"/>
    <text x="325" y="147" font-family="Arial, sans-serif" font-size="14" font-weight="700" fill="#fff">US</text>
    <rect x="307" y="168" width="156" height="26" rx="4" fill="#f5f7fb"/>
    <circle cx="318" cy="181" r="4" fill="#b8c2d8"/>
    <path d="M452 176l7 7m0-7l-7 7" stroke="#9aa5b5" stroke-width="1.5"/>
    <g fill="#eef3fb">
      <rect x="307" y="206" width="156" height="1"/>
      <rect x="307" y="244" width="156" height="1"/>
      <rect x="307" y="282" width="156" height="1"/>
      <rect x="307" y="320" width="156" height="1"/>
      <rect x="307" y="358" width="156" height="1"/>
    </g>
    <g font-family="Arial, sans-serif" font-size="11" fill="#28384f">
      <text x="314" y="222">QuickQ USA VIP1</text>
      <text x="314" y="260">QuickQ USA VIP2</text>
      <text x="314" y="298">QuickQ USA VIP3</text>
      <text x="314" y="336">QuickQ USA VIP4</text>
      <text x="314" y="374">QuickQ USA VIP5</text>
    </g>
    <g>
      <path d="M451 218l7-7v7z" fill="#3fc85d"/>
      <path d="M451 256l7-7v7z" fill="#ffa83d"/>
      <path d="M451 294l7-7v7z" fill="#ef5360"/>
      <path d="M451 332l7-7v7z" fill="#3fc85d"/>
      <path d="M451 370l7-7v7z" fill="#ffa83d"/>
    </g>
  </g>
  <g filter="url(#glow)">
    <rect x="196" y="252" width="185" height="288" rx="8" fill="#fff"/>
    <rect x="196" y="252" width="185" height="54" rx="8" fill="#2b73ff"/>
    <text x="232" y="284" font-family="Arial, sans-serif" font-size="14" font-weight="700" fill="#fff">Labels</text>
    <path d="M219 285l-7-7 7-7" fill="none" stroke="#fff" stroke-width="2" stroke-linecap="round" stroke-linejoin="round"/>
    <rect x="196" y="306" width="185" height="56" fill="#fff"/>
    <circle cx="228" cy="333" r="10" fill="none" stroke="#9aa5b5" stroke-width="2"/>
    <path d="M220 341l16-16" stroke="#9aa5b5" stroke-width="2"/>
    <text x="215" y="355" font-family="Arial, sans-serif" font-size="10" fill="#333">Unavailable</text>
    <g font-family="Arial, sans-serif" text-anchor="middle">
      <rect x="220" y="388" width="30" height="13" rx="2" fill="#e61928"/>
      <text x="235" y="398" font-size="8" font-weight="700" fill="#fff">NETFLIX</text>
      <text x="296" y="398" font-size="8" font-weight="700" fill="#111">GAME</text>
      <rect x="338" y="386" width="18" height="16" rx="3" fill="#222"/>
      <text x="235" y="438" font-size="11" font-weight="700" fill="#32aee8">BILIBILI</text>
      <text x="296" y="438" font-size="10" font-weight="700" fill="#f6a21a">VIDEO</text>
      <text x="349" y="438" font-size="11" font-weight="700" fill="#111">BBC</text>
      <rect x="224" y="464" width="22" height="18" rx="5" fill="#111"/>
      <text x="235" y="477" font-size="7" fill="#fff">FOX</text>
      <circle cx="296" cy="473" r="13" fill="#f5f9ff" stroke="#ddd"/>
      <path d="M286 473h20" stroke="#159e5c" stroke-width="4"/>
      <path d="M286 467h20" stroke="#e03c31" stroke-width="4"/>
      <text x="350" y="477" font-size="10" font-weight="700" fill="#333">HBO</text>
      <text x="236" y="524" font-size="9" fill="#111">hulu</text>
      <text x="296" y="524" font-size="12" fill="#2b4dbd">Disney+</text>
      <text x="350" y="524" font-size="10" fill="#20a93a">LINE TV</text>
    </g>
  </g>
</svg>
